{
.appVersion = "895";
copyright = "Copyright 2016 Google Inc. All Rights Reserved.";
customParameters = (
{
name = description;
value = "Data unhinted. Designed by Monotype design team.";
},
{
name = license;
value = "This Font Software is licensed under the SIL Open Font License, Version 1.1. This Font Software is distributed on an \"AS IS\" BASIS, WITHOUT WARRANTIES OR CONDITIONS OF ANY KIND, either express or implied. See the SIL Open Font License for the specific language, permissions and limitations governing your use of this Font Software.";
},
{
name = licenseURL;
value = "http://scripts.sil.org/OFL";
},
{
name = vendorID;
value = GOOG;
},
{
name = panose;
value = (
2,
11,
5,
2,
4,
5,
4,
2,
2,
4
);
},
{
name = unicodeRanges;
value = (
114
);
},
{
name = codePageRanges;
value = (
1252
);
}
);
date = "2016-11-10 14:21:00 +0000";
designer = "Monotype Design Team";
designerURL = "http://www.monotype.com/studio";
familyName = "Noto Sans Ol Chiki";
fontMaster = (
{
ascender = 2189;
capHeight = 1495;
customParameters = (
{
name = typoAscender;
value = 2189;
},
{
name = typoDescender;
value = -600;
},
{
name = typoLineGap;
value = 0;
},
{
name = winAscent;
value = 2189;
},
{
name = winDescent;
value = 600;
},
{
name = hheaAscender;
value = 2189;
},
{
name = hheaDescender;
value = -600;
},
{
name = underlinePosition;
value = -205;
},
{
name = underlineThickness;
value = 102;
}
);
descender = -600;
id = "82F4720C-DC9D-4527-A6D6-45BE47925051";
weightValue = 400;
widthValue = 5;
xHeight = 1046;
}
);
glyphs = (
{
glyphname = .notdef;
lastChange = "2016-11-10 14:20:46 +0000";
layers = (
{
layerId = "82F4720C-DC9D-4527-A6D6-45BE47925051";
paths = (
{
closed = 1;
nodes = (
"1034 0 LINE",
"1034 1462 LINE",
"193 1462 LINE",
"193 0 LINE"
);
},
{
closed = 1;
nodes = (
"297 1358 LINE",
"930 1358 LINE",
"930 104 LINE",
"297 104 LINE"
);
}
);
width = 1229;
}
);
note = .notdef;
},
{
glyphname = uni1C50;
lastChange = "2016-11-10 14:15:24 +0000";
layers = (
{
layerId = "82F4720C-DC9D-4527-A6D6-45BE47925051";
paths = (
{
closed = 1;
nodes = (
"909 -20 OFFCURVE",
"1071 221 OFFCURVE",
"1071 733 CURVE SMOOTH",
"1071 1224 OFFCURVE",
"901 1485 OFFCURVE",
"584 1485 CURVE SMOOTH",
"257 1485 OFFCURVE",
"100 1248 OFFCURVE",
"100 733 CURVE SMOOTH",
"100 240 OFFCURVE",
"267 -20 OFFCURVE",
"584 -20 CURVE SMOOTH"
);
},
{
closed = 1;
nodes = (
"375 133 OFFCURVE",
"281 308 OFFCURVE",
"281 733 CURVE SMOOTH",
"281 1153 OFFCURVE",
"372 1331 OFFCURVE",
"584 1331 CURVE SMOOTH",
"796 1331 OFFCURVE",
"889 1145 OFFCURVE",
"889 733 CURVE SMOOTH",
"889 316 OFFCURVE",
"796 133 OFFCURVE",
"584 133 CURVE SMOOTH"
);
}
);
width = 1171;
}
);
note = uni1C50;
unicode = 1C50;
},
{
glyphname = uni1C51;
lastChange = "2016-11-10 14:20:44 +0000";
layers = (
{
layerId = "82F4720C-DC9D-4527-A6D6-45BE47925051";
paths = (
{
closed = 1;
nodes = (
"944 166 LINE",
"536 331 OFFCURVE",
"295 702 OFFCURVE",
"295 1155 CURVE",
"944 690 LINE",
"944 1462 LINE",
"768 1462 LINE",
"768 999 LINE",
"96 1483 LINE",
"96 1168 OFFCURVE",
"125 917 OFFCURVE",
"183 730 CURVE SMOOTH",
"298 354 OFFCURVE",
"536 124 OFFCURVE",
"944 -20 CURVE"
);
}
);
width = 1055;
}
);
note = uni1C51;
unicode = 1C51;
},
{
glyphname = uni1C52;
lastChange = "2016-11-10 14:20:44 +0000";
layers = (
{
layerId = "82F4720C-DC9D-4527-A6D6-45BE47925051";
paths = (
{
closed = 1;
nodes = (
"776 -18 OFFCURVE",
"937 89 OFFCURVE",
"1024 297 CURVE",
"858 332 LINE",
"817 213 OFFCURVE",
"702 135 OFFCURVE",
"573 135 CURVE SMOOTH",
"392 135 OFFCURVE",
"272 238 OFFCURVE",
"272 399 CURVE SMOOTH",
"272 444 OFFCURVE",
"326 521 OFFCURVE",
"434 629 CURVE SMOOTH",
"739 936 LINE",
"823 1012 OFFCURVE",
"885 1138 OFFCURVE",
"885 1245 CURVE SMOOTH",
"885 1397 OFFCURVE",
"778 1485 OFFCURVE",
"590 1485 CURVE SMOOTH",
"410 1485 OFFCURVE",
"297 1382 OFFCURVE",
"297 1243 CURVE SMOOTH",
"297 1143 OFFCURVE",
"376 1052 OFFCURVE",
"535 971 CURVE",
"295 729 LINE SMOOTH",
"147 584 OFFCURVE",
"92 490 OFFCURVE",
"92 399 CURVE SMOOTH",
"92 147 OFFCURVE",
"292 -18 OFFCURVE",
"573 -18 CURVE SMOOTH"
);
},
{
closed = 1;
nodes = (
"588 1094 LINE SMOOTH",
"507 1153 OFFCURVE",
"467 1202 OFFCURVE",
"467 1241 CURVE SMOOTH",
"467 1301 OFFCURVE",
"510 1346 OFFCURVE",
"590 1346 CURVE SMOOTH",
"667 1346 OFFCURVE",
"715 1300 OFFCURVE",
"715 1235 CURVE SMOOTH",
"715 1176 OFFCURVE",
"693 1119 OFFCURVE",
"633 1059 CURVE"
);
}
);
width = 1051;
}
);
note = uni1C52;
unicode = 1C52;
},
{
glyphname = uni1C53;
lastChange = "2016-11-10 14:20:44 +0000";
layers = (
{
layerId = "82F4720C-DC9D-4527-A6D6-45BE47925051";
paths = (
{
closed = 1;
nodes = (
"956 166 LINE",
"540 247 OFFCURVE",
"295 405 OFFCURVE",
"295 590 CURVE SMOOTH",
"295 667 OFFCURVE",
"356 774 OFFCURVE",
"479 909 CURVE",
"956 690 LINE",
"956 1462 LINE",
"780 1462 LINE",
"780 934 LINE",
"588 1022 LINE",
"621 1054 LINE SMOOTH",
"672 1102 OFFCURVE",
"707 1172 OFFCURVE",
"707 1245 CURVE SMOOTH",
"707 1380 OFFCURVE",
"586 1485 OFFCURVE",
"438 1485 CURVE SMOOTH",
"278 1485 OFFCURVE",
"164 1373 OFFCURVE",
"164 1233 CURVE SMOOTH",
"164 1145 OFFCURVE",
"212 1067 OFFCURVE",
"291 1015 CURVE SMOOTH",
"340 981 LINE",
"278 914 LINE SMOOTH",
"178 807 OFFCURVE",
"115 689 OFFCURVE",
"115 592 CURVE SMOOTH",
"115 461 OFFCURVE",
"180 346 OFFCURVE",
"310 248 CURVE SMOOTH",
"440 150 OFFCURVE",
"655 61 OFFCURVE",
"956 -20 CURVE"
);
},
{
closed = 1;
nodes = (
"374 1126 OFFCURVE",
"322 1186 OFFCURVE",
"322 1235 CURVE SMOOTH",
"322 1295 OFFCURVE",
"369 1346 OFFCURVE",
"434 1346 CURVE SMOOTH",
"497 1346 OFFCURVE",
"547 1302 OFFCURVE",
"547 1245 CURVE SMOOTH",
"547 1204 OFFCURVE",
"516 1150 OFFCURVE",
"473 1109 CURVE SMOOTH",
"449 1085 LINE"
);
}
);
width = 1067;
}
);
note = uni1C53;
unicode = 1C53;
},
{
glyphname = uni1C54;
lastChange = "2016-11-10 14:20:44 +0000";
layers = (
{
layerId = "82F4720C-DC9D-4527-A6D6-45BE47925051";
paths = (
{
closed = 1;
nodes = (
"773 -20 OFFCURVE",
"918 120 OFFCURVE",
"918 297 CURVE SMOOTH",
"918 382 OFFCURVE",
"904 468 OFFCURVE",
"829 592 CURVE",
"780 533 OFFCURVE",
"731 512 OFFCURVE",
"678 512 CURVE SMOOTH",
"550 512 OFFCURVE",
"378 714 OFFCURVE",
"319 881 CURVE",
"362 1070 OFFCURVE",
"602 1276 OFFCURVE",
"897 1300 CURVE",
"897 1485 LINE",
"453 1440 OFFCURVE",
"100 1096 OFFCURVE",
"100 608 CURVE SMOOTH",
"100 235 OFFCURVE",
"278 -20 OFFCURVE",
"557 -20 CURVE SMOOTH"
);
},
{
closed = 1;
nodes = (
"379 123 OFFCURVE",
"270 336 OFFCURVE",
"270 600 CURVE SMOOTH",
"270 635 OFFCURVE",
"272 666 OFFCURVE",
"276 694 CURVE",
"345 549 OFFCURVE",
"518 373 OFFCURVE",
"635 373 CURVE SMOOTH",
"681 373 OFFCURVE",
"716 380 OFFCURVE",
"741 395 CURVE",
"754 361 OFFCURVE",
"760 331 OFFCURVE",
"760 305 CURVE SMOOTH",
"760 205 OFFCURVE",
"686 123 OFFCURVE",
"559 123 CURVE SMOOTH"
);
}
);
width = 989;
}
);
note = uni1C54;
unicode = 1C54;
},
{
glyphname = uni1C55;
lastChange = "2016-11-10 14:20:44 +0000";
layers = (
{
layerId = "82F4720C-DC9D-4527-A6D6-45BE47925051";
paths = (
{
closed = 1;
nodes = (
"871 -20 OFFCURVE",
"1055 185 OFFCURVE",
"1055 416 CURVE",
"808 416 OFFCURVE",
"672 502 OFFCURVE",
"672 655 CURVE SMOOTH",
"672 816 OFFCURVE",
"787 935 OFFCURVE",
"995 975 CURVE",
"948 1137 LINE",
"876 1125 OFFCURVE",
"803 1097 OFFCURVE",
"728 1053 CURVE SMOOTH",
"578 965 OFFCURVE",
"498 824 OFFCURVE",
"498 655 CURVE SMOOTH",
"498 439 OFFCURVE",
"670 299 OFFCURVE",
"870 299 CURVE",
"819 188 OFFCURVE",
"740 133 OFFCURVE",
"631 133 CURVE SMOOTH",
"416 133 OFFCURVE",
"283 327 OFFCURVE",
"283 647 CURVE SMOOTH",
"283 878 OFFCURVE",
"388 1125 OFFCURVE",
"547 1332 CURVE SMOOTH",
"586 1386 LINE",
"438 1485 LINE",
"263 1274 OFFCURVE",
"100 928 OFFCURVE",
"100 647 CURVE SMOOTH",
"100 255 OFFCURVE",
"322 -20 OFFCURVE",
"631 -20 CURVE SMOOTH"
);
}
);
width = 1128;
}
);
note = uni1C55;
unicode = 1C55;
},
{
glyphname = uni1C56;
lastChange = "2016-11-10 14:20:44 +0000";
layers = (
{
layerId = "82F4720C-DC9D-4527-A6D6-45BE47925051";
paths = (
{
closed = 1;
nodes = (
"967 106 LINE",
"534 309 OFFCURVE",
"281 560 OFFCURVE",
"281 817 CURVE SMOOTH",
"281 933 OFFCURVE",
"316 1051 OFFCURVE",
"365 1118 CURVE",
"457 937 OFFCURVE",
"561 870 OFFCURVE",
"698 870 CURVE SMOOTH",
"875 870 OFFCURVE",
"1014 1010 OFFCURVE",
"1014 1174 CURVE SMOOTH",
"1014 1361 OFFCURVE",
"881 1485 OFFCURVE",
"688 1485 CURVE SMOOTH",
"581 1485 OFFCURVE",
"439 1417 OFFCURVE",
"408 1386 CURVE",
"354 1495 LINE",
"213 1417 LINE",
"287 1284 LINE",
"179 1179 OFFCURVE",
"98 986 OFFCURVE",
"98 823 CURVE SMOOTH",
"98 483 OFFCURVE",
"421 159 OFFCURVE",
"844 -20 CURVE"
);
},
{
closed = 1;
nodes = (
"663 1016 OFFCURVE",
"629 1031 OFFCURVE",
"596 1062 CURVE SMOOTH",
"563 1092 OFFCURVE",
"522 1154 OFFCURVE",
"473 1247 CURVE",
"506 1280 OFFCURVE",
"611 1337 OFFCURVE",
"684 1337 CURVE SMOOTH",
"775 1337 OFFCURVE",
"850 1265 OFFCURVE",
"850 1180 CURVE SMOOTH",
"850 1089 OFFCURVE",
"781 1016 OFFCURVE",
"698 1016 CURVE SMOOTH"
);
}
);
width = 1036;
}
);
note = uni1C56;
unicode = 1C56;
},
{
glyphname = uni1C57;
lastChange = "2016-11-10 14:20:44 +0000";
layers = (
{
layerId = "82F4720C-DC9D-4527-A6D6-45BE47925051";
paths = (
{
closed = 1;
nodes = (
"761 -20 OFFCURVE",
"935 110 OFFCURVE",
"1014 287 CURVE",
"840 324 LINE",
"811 243 OFFCURVE",
"690 133 OFFCURVE",
"557 133 CURVE SMOOTH",
"394 133 OFFCURVE",
"287 243 OFFCURVE",
"287 399 CURVE SMOOTH",
"287 444 OFFCURVE",
"313 493 OFFCURVE",
"365 545 CURVE SMOOTH",
"747 930 LINE SMOOTH",
"868 1047 OFFCURVE",
"928 1146 OFFCURVE",
"928 1227 CURVE SMOOTH",
"928 1388 OFFCURVE",
"817 1485 OFFCURVE",
"625 1485 CURVE SMOOTH",
"516 1485 OFFCURVE",
"413 1434 OFFCURVE",
"328 1311 CURVE",
"174 1473 LINE",
"66 1368 LINE",
"406 1016 LINE",
"514 1120 LINE",
"438 1198 LINE",
"474 1274 OFFCURVE",
"553 1331 OFFCURVE",
"625 1331 CURVE SMOOTH",
"705 1331 OFFCURVE",
"748 1287 OFFCURVE",
"748 1227 CURVE SMOOTH",
"748 1184 OFFCURVE",
"711 1126 OFFCURVE",
"638 1055 CURVE SMOOTH",
"252 674 LINE SMOOTH",
"153 582 OFFCURVE",
"104 490 OFFCURVE",
"104 399 CURVE SMOOTH",
"104 158 OFFCURVE",
"284 -20 OFFCURVE",
"557 -20 CURVE SMOOTH"
);
}
);
width = 1053;
}
);
note = uni1C57;
unicode = 1C57;
},
{
glyphname = uni1C58;
lastChange = "2016-11-10 14:20:44 +0000";
layers = (
{
layerId = "82F4720C-DC9D-4527-A6D6-45BE47925051";
paths = (
{
closed = 1;
nodes = (
"808 -20 OFFCURVE",
"905 -2 OFFCURVE",
"990 34 CURVE SMOOTH",
"1158 105 OFFCURVE",
"1265 267 OFFCURVE",
"1272 414 CURVE",
"1081 414 LINE",
"1069 243 OFFCURVE",
"926 133 OFFCURVE",
"698 133 CURVE SMOOTH",
"432 133 OFFCURVE",
"299 227 OFFCURVE",
"299 414 CURVE SMOOTH",
"299 522 LINE",
"715 1059 LINE",
"828 926 OFFCURVE",
"937 860 OFFCURVE",
"1028 860 CURVE SMOOTH",
"1216 860 OFFCURVE",
"1335 999 OFFCURVE",
"1335 1171 CURVE SMOOTH",
"1335 1367 OFFCURVE",
"1227 1485 OFFCURVE",
"1042 1485 CURVE SMOOTH",
"931 1485 OFFCURVE",
"862 1451 OFFCURVE",
"723 1292 CURVE",
"664 1351 LINE SMOOTH",
"581 1434 OFFCURVE",
"490 1487 OFFCURVE",
"414 1487 CURVE SMOOTH",
"227 1484 OFFCURVE",
"123 1370 OFFCURVE",
"123 1165 CURVE SMOOTH",
"123 397 LINE SMOOTH",
"123 132 OFFCURVE",
"317 -20 OFFCURVE",
"698 -20 CURVE SMOOTH"
);
},
{
closed = 1;
nodes = (
"299 1192 LINE SMOOTH",
"299 1267 OFFCURVE",
"342 1325 OFFCURVE",
"406 1325 CURVE SMOOTH",
"423 1325 OFFCURVE",
"446 1314 OFFCURVE",
"475 1293 CURVE SMOOTH",
"504 1272 OFFCURVE",
"553 1229 OFFCURVE",
"621 1165 CURVE",
"299 762 LINE"
);
},
{
closed = 1;
nodes = (
"985 1006 OFFCURVE",
"915 1063 OFFCURVE",
"855 1128 CURVE SMOOTH",
"817 1169 LINE",
"862 1223 LINE SMOOTH",
"923 1300 OFFCURVE",
"983 1339 OFFCURVE",
"1040 1339 CURVE SMOOTH",
"1117 1339 OFFCURVE",
"1171 1267 OFFCURVE",
"1171 1171 CURVE SMOOTH",
"1171 1078 OFFCURVE",
"1108 1006 OFFCURVE",
"1028 1006 CURVE SMOOTH"
);
}
);
width = 1368;
}
);
note = uni1C58;
unicode = 1C58;
},
{
glyphname = uni1C59;
lastChange = "2016-11-10 14:20:44 +0000";
layers = (
{
layerId = "82F4720C-DC9D-4527-A6D6-45BE47925051";
paths = (
{
closed = 1;
nodes = (
"1014 -20 OFFCURVE",
"1221 254 OFFCURVE",
"1221 573 CURVE SMOOTH",
"1221 801 OFFCURVE",
"1078 961 OFFCURVE",
"870 961 CURVE SMOOTH",
"698 961 OFFCURVE",
"557 816 OFFCURVE",
"557 641 CURVE SMOOTH",
"557 413 OFFCURVE",
"752 293 OFFCURVE",
"977 293 CURVE",
"937 205 OFFCURVE",
"825 133 OFFCURVE",
"682 133 CURVE SMOOTH",
"449 133 OFFCURVE",
"283 352 OFFCURVE",
"283 684 CURVE SMOOTH",
"283 1012 OFFCURVE",
"501 1274 OFFCURVE",
"764 1323 CURVE",
"725 1485 LINE",
"614 1459 OFFCURVE",
"508 1406 OFFCURVE",
"405 1327 CURVE SMOOTH",
"200 1167 OFFCURVE",
"100 945 OFFCURVE",
"100 684 CURVE SMOOTH",
"100 264 OFFCURVE",
"335 -20 OFFCURVE",
"682 -20 CURVE SMOOTH"
);
},
{
closed = 1;
nodes = (
"839 418 OFFCURVE",
"709 510 OFFCURVE",
"709 643 CURVE SMOOTH",
"709 743 OFFCURVE",
"777 821 OFFCURVE",
"870 821 CURVE SMOOTH",
"990 821 OFFCURVE",
"1061 709 OFFCURVE",
"1061 584 CURVE SMOOTH",
"1061 520 OFFCURVE",
"1053 465 OFFCURVE",
"1036 418 CURVE"
);
}
);
width = 1294;
}
);
note = uni1C59;
unicode = 1C59;
},
{
glyphname = uni1C5A;
lastChange = "2016-11-10 14:20:44 +0000";
layers = (
{
layerId = "82F4720C-DC9D-4527-A6D6-45BE47925051";
paths = (
{
closed = 1;
nodes = (
"1010 -20 OFFCURVE",
"1231 263 OFFCURVE",
"1231 666 CURVE SMOOTH",
"1231 1179 OFFCURVE",
"969 1485 OFFCURVE",
"528 1485 CURVE SMOOTH",
"404 1485 OFFCURVE",
"303 1468 OFFCURVE",
"226 1434 CURVE SMOOTH",
"148 1400 OFFCURVE",
"109 1359 OFFCURVE",
"109 1311 CURVE SMOOTH",
"109 1277 OFFCURVE",
"129 1230 OFFCURVE",
"168 1171 CURVE SMOOTH",
"272 1014 LINE",
"96 1014 LINE",
"96 858 LINE",
"330 858 LINE SMOOTH",
"418 858 OFFCURVE",
"457 905 OFFCURVE",
"457 969 CURVE SMOOTH",
"457 1008 OFFCURVE",
"445 1047 OFFCURVE",
"420 1087 CURVE SMOOTH",
"289 1288 LINE",
"346 1317 OFFCURVE",
"426 1331 OFFCURVE",
"528 1331 CURVE SMOOTH",
"659 1331 OFFCURVE",
"782 1280 OFFCURVE",
"805 1253 CURVE",
"141 401 LINE",
"141 181 OFFCURVE",
"364 -20 OFFCURVE",
"653 -20 CURVE SMOOTH"
);
},
{
closed = 1;
nodes = (
"471 133 OFFCURVE",
"317 271 OFFCURVE",
"313 356 CURVE",
"915 1133 LINE",
"970 1078 OFFCURVE",
"1051 858 OFFCURVE",
"1051 666 CURVE SMOOTH",
"1051 385 OFFCURVE",
"896 133 OFFCURVE",
"647 133 CURVE SMOOTH"
);
}
);
width = 1329;
}
);
note = uni1C5A;
unicode = 1C5A;
},
{
glyphname = uni1C5B;
lastChange = "2016-11-10 14:15:24 +0000";
layers = (
{
layerId = "82F4720C-DC9D-4527-A6D6-45BE47925051";
paths = (
{
closed = 1;
nodes = (
"1225 -20 OFFCURVE",
"1475 264 OFFCURVE",
"1475 733 CURVE SMOOTH",
"1475 1202 OFFCURVE",
"1228 1485 OFFCURVE",
"803 1485 CURVE SMOOTH",
"367 1485 OFFCURVE",
"125 1211 OFFCURVE",
"125 735 CURVE SMOOTH",
"125 255 OFFCURVE",
"370 -20 OFFCURVE",
"801 -20 CURVE SMOOTH"
);
},
{
closed = 1;
nodes = (
"486 139 OFFCURVE",
"319 346 OFFCURVE",
"319 733 CURVE SMOOTH",
"319 1118 OFFCURVE",
"486 1323 OFFCURVE",
"803 1323 CURVE SMOOTH",
"1116 1323 OFFCURVE",
"1280 1124 OFFCURVE",
"1280 733 CURVE SMOOTH",
"1280 341 OFFCURVE",
"1114 139 OFFCURVE",
"801 139 CURVE SMOOTH"
);
}
);
width = 1599;
}
);
note = uni1C5B;
unicode = 1C5B;
},
{
glyphname = uni1C5C;
lastChange = "2016-11-10 14:20:44 +0000";
layers = (
{
layerId = "82F4720C-DC9D-4527-A6D6-45BE47925051";
paths = (
{
closed = 1;
nodes = (
"1041 -20 OFFCURVE",
"1247 223 OFFCURVE",
"1292 623 CURVE",
"1198 672 LINE",
"1105 625 OFFCURVE",
"951 575 OFFCURVE",
"868 575 CURVE SMOOTH",
"764 575 OFFCURVE",
"698 640 OFFCURVE",
"698 741 CURVE SMOOTH",
"698 834 OFFCURVE",
"753 893 OFFCURVE",
"866 893 CURVE SMOOTH",
"1247 893 LINE",
"1247 1049 LINE",
"893 1049 LINE SMOOTH",
"673 1049 OFFCURVE",
"537 930 OFFCURVE",
"537 741 CURVE SMOOTH",
"537 576 OFFCURVE",
"673 430 OFFCURVE",
"844 430 CURVE SMOOTH",
"909 430 OFFCURVE",
"999 452 OFFCURVE",
"1079 485 CURVE",
"1079 333 OFFCURVE",
"900 133 OFFCURVE",
"713 133 CURVE SMOOTH",
"441 133 OFFCURVE",
"281 370 OFFCURVE",
"281 731 CURVE SMOOTH",
"281 1091 OFFCURVE",
"431 1331 OFFCURVE",
"688 1331 CURVE SMOOTH",
"741 1331 OFFCURVE",
"789 1319 OFFCURVE",
"830 1296 CURVE SMOOTH",
"912 1248 OFFCURVE",
"966 1170 OFFCURVE",
"973 1139 CURVE",
"1155 1182 LINE",
"1111 1339 OFFCURVE",
"906 1485 OFFCURVE",
"682 1485 CURVE SMOOTH",
"325 1485 OFFCURVE",
"100 1191 OFFCURVE",
"100 731 CURVE SMOOTH",
"100 279 OFFCURVE",
"337 -20 OFFCURVE",
"713 -20 CURVE SMOOTH"
);
}
);
width = 1384;
}
);
note = uni1C5C;
unicode = 1C5C;
},
{
glyphname = uni1C5D;
lastChange = "2016-11-10 14:20:44 +0000";
layers = (
{
layerId = "82F4720C-DC9D-4527-A6D6-45BE47925051";
paths = (
{
closed = 1;
nodes = (
"933 -20 OFFCURVE",
"1101 88 OFFCURVE",
"1190 287 CURVE",
"743 731 LINE",
"1190 1178 LINE",
"1099 1378 OFFCURVE",
"928 1485 OFFCURVE",
"705 1485 CURVE SMOOTH",
"370 1485 OFFCURVE",
"145 1257 OFFCURVE",
"100 881 CURVE",
"283 881 LINE",
"326 1173 OFFCURVE",
"476 1331 OFFCURVE",
"705 1331 CURVE SMOOTH",
"828 1331 OFFCURVE",
"924 1287 OFFCURVE",
"993 1200 CURVE",
"526 731 LINE",
"993 264 LINE",
"924 177 OFFCURVE",
"828 133 OFFCURVE",
"705 133 CURVE SMOOTH",
"474 133 OFFCURVE",
"324 293 OFFCURVE",
"283 584 CURVE",
"100 584 LINE",
"144 209 OFFCURVE",
"370 -20 OFFCURVE",
"705 -20 CURVE SMOOTH"
);
},
{
closed = 1;
nodes = (
"1294 651 LINE",
"1294 793 LINE",
"913 793 LINE",
"913 651 LINE"
);
}
);
width = 1376;
}
);
note = uni1C5D;
unicode = 1C5D;
},
{
glyphname = uni1C5E;
lastChange = "2016-11-10 14:20:44 +0000";
layers = (
{
layerId = "82F4720C-DC9D-4527-A6D6-45BE47925051";
paths = (
{
closed = 1;
nodes = (
"350 0 LINE",
"350 477 LINE",
"596 252 LINE",
"889 347 OFFCURVE",
"1114 588 OFFCURVE",
"1114 868 CURVE SMOOTH",
"1114 1141 OFFCURVE",
"905 1381 OFFCURVE",
"596 1485 CURVE",
"350 1257 LINE",
"350 1462 LINE",
"174 1462 LINE",
"174 0 LINE"
);
},
{
closed = 1;
nodes = (
"350 662 LINE",
"350 1073 LINE",
"596 1311 LINE",
"795 1239 OFFCURVE",
"932 1080 OFFCURVE",
"932 868 CURVE SMOOTH",
"932 660 OFFCURVE",
"799 497 OFFCURVE",
"596 426 CURVE"
);
}
);
width = 1196;
}
);
note = uni1C5E;
unicode = 1C5E;
},
{
glyphname = uni1C5F;
lastChange = "2016-11-10 14:20:44 +0000";
layers = (
{
layerId = "82F4720C-DC9D-4527-A6D6-45BE47925051";
paths = (
{
closed = 1;
nodes = (
"761 -20 OFFCURVE",
"973 246 OFFCURVE",
"973 717 CURVE SMOOTH",
"973 852 OFFCURVE",
"931 1013 OFFCURVE",
"866 1133 CURVE",
"944 1249 LINE",
"1055 1134 OFFCURVE",
"1135 908 OFFCURVE",
"1135 717 CURVE SMOOTH",
"1135 430 OFFCURVE",
"1019 144 OFFCURVE",
"899 0 CURVE",
"1098 0 LINE",
"1205 121 OFFCURVE",
"1315 418 OFFCURVE",
"1315 717 CURVE SMOOTH",
"1315 1049 OFFCURVE",
"1157 1361 OFFCURVE",
"905 1485 CURVE",
"772 1284 LINE",
"671 1415 OFFCURVE",
"547 1485 OFFCURVE",
"422 1485 CURVE SMOOTH",
"325 1485 OFFCURVE",
"222 1444 OFFCURVE",
"159 1392 CURVE SMOOTH",
"129 1368 LINE",
"268 1010 LINE",
"96 1010 LINE",
"129 852 LINE",
"276 852 LINE SMOOTH",
"368 852 OFFCURVE",
"426 904 OFFCURVE",
"426 992 CURVE SMOOTH",
"426 1021 OFFCURVE",
"420 1051 OFFCURVE",
"408 1081 CURVE SMOOTH",
"324 1298 LINE",
"345 1318 OFFCURVE",
"383 1331 OFFCURVE",
"420 1331 CURVE SMOOTH",
"509 1331 OFFCURVE",
"605 1260 OFFCURVE",
"678 1141 CURVE",
"104 279 LINE",
"104 126 OFFCURVE",
"277 -20 OFFCURVE",
"469 -20 CURVE SMOOTH"
);
},
{
closed = 1;
nodes = (
"388 133 OFFCURVE",
"293 202 OFFCURVE",
"276 250 CURVE",
"758 969 LINE",
"767 941 LINE SMOOTH",
"784 889 OFFCURVE",
"801 802 OFFCURVE",
"801 717 CURVE SMOOTH",
"801 392 OFFCURVE",
"684 133 OFFCURVE",
"469 133 CURVE SMOOTH"
);
}
);
width = 1417;
}
);
note = uni1C5F;
unicode = 1C5F;
},
{
glyphname = uni1C60;
lastChange = "2016-11-10 14:20:44 +0000";
layers = (
{
layerId = "82F4720C-DC9D-4527-A6D6-45BE47925051";
paths = (
{
closed = 1;
nodes = (
"886 79 OFFCURVE",
"1104 321 OFFCURVE",
"1104 596 CURVE SMOOTH",
"1104 871 OFFCURVE",
"886 1113 OFFCURVE",
"586 1212 CURVE",
"340 987 LINE",
"340 1464 LINE",
"164 1464 LINE",
"164 360 LINE",
"586 -20 LINE"
);
},
{
closed = 1;
nodes = (
"340 393 LINE",
"340 813 LINE",
"586 1038 LINE",
"787 965 OFFCURVE",
"922 807 OFFCURVE",
"922 596 CURVE SMOOTH",
"922 384 OFFCURVE",
"790 227 OFFCURVE",
"598 162 CURVE"
);
}
);
width = 1186;
}
);
note = uni1C60;
unicode = 1C60;
},
{
glyphname = uni1C61;
lastChange = "2016-11-10 14:20:44 +0000";
layers = (
{
layerId = "82F4720C-DC9D-4527-A6D6-45BE47925051";
paths = (
{
closed = 1;
nodes = (
"954 83 OFFCURVE",
"1188 434 OFFCURVE",
"1188 737 CURVE SMOOTH",
"1188 985 OFFCURVE",
"1068 1259 OFFCURVE",
"872 1464 CURVE",
"633 1464 LINE",
"691 1406 LINE SMOOTH",
"887 1213 OFFCURVE",
"1008 974 OFFCURVE",
"1008 737 CURVE SMOOTH",
"1008 520 OFFCURVE",
"910 325 OFFCURVE",
"754 205 CURVE",
"350 596 LINE",
"350 1464 LINE",
"174 1464 LINE",
"174 2 LINE",
"350 2 LINE",
"350 371 LINE",
"754 -20 LINE"
);
}
);
width = 1288;
}
);
note = uni1C61;
unicode = 1C61;
},
{
glyphname = uni1C62;
lastChange = "2016-11-10 14:20:44 +0000";
layers = (
{
layerId = "82F4720C-DC9D-4527-A6D6-45BE47925051";
paths = (
{
closed = 1;
nodes = (
"938 371 LINE",
"938 2 LINE",
"1114 2 LINE",
"1114 1464 LINE",
"938 1464 LINE",
"938 596 LINE",
"535 205 LINE",
"400 304 OFFCURVE",
"281 505 OFFCURVE",
"281 737 CURVE SMOOTH",
"281 972 OFFCURVE",
"392 1201 OFFCURVE",
"597 1406 CURVE SMOOTH",
"655 1464 LINE",
"416 1464 LINE",
"225 1263 OFFCURVE",
"100 986 OFFCURVE",
"100 737 CURVE SMOOTH",
"100 432 OFFCURVE",
"336 83 OFFCURVE",
"535 -20 CURVE"
);
}
);
width = 1288;
}
);
note = uni1C62;
unicode = 1C62;
},
{
glyphname = uni1C63;
lastChange = "2016-11-10 14:20:44 +0000";
layers = (
{
layerId = "82F4720C-DC9D-4527-A6D6-45BE47925051";
paths = (
{
closed = 1;
nodes = (
"1011 -20 OFFCURVE",
"1241 296 OFFCURVE",
"1241 723 CURVE SMOOTH",
"1241 944 OFFCURVE",
"1189 1168 OFFCURVE",
"1106 1349 CURVE SMOOTH",
"1055 1464 LINE",
"856 1464 LINE",
"909 1358 LINE SMOOTH",
"1000 1175 OFFCURVE",
"1061 940 OFFCURVE",
"1061 723 CURVE SMOOTH",
"1061 388 OFFCURVE",
"900 133 OFFCURVE",
"688 133 CURVE SMOOTH",
"524 133 OFFCURVE",
"326 314 OFFCURVE",
"303 526 CURVE",
"378 477 OFFCURVE",
"457 453 OFFCURVE",
"539 453 CURVE SMOOTH",
"716 453 OFFCURVE",
"831 638 OFFCURVE",
"831 954 CURVE SMOOTH",
"831 1262 OFFCURVE",
"694 1485 OFFCURVE",
"457 1485 CURVE SMOOTH",
"253 1485 OFFCURVE",
"115 1310 OFFCURVE",
"100 1069 CURVE",
"258 1069 LINE",
"258 1220 OFFCURVE",
"345 1331 OFFCURVE",
"457 1331 CURVE SMOOTH",
"586 1331 OFFCURVE",
"666 1186 OFFCURVE",
"666 954 CURVE SMOOTH",
"666 718 OFFCURVE",
"620 606 OFFCURVE",
"453 606 CURVE SMOOTH",
"364 606 OFFCURVE",
"230 687 OFFCURVE",
"102 815 CURVE",
"102 299 OFFCURVE",
"336 -20 OFFCURVE",
"688 -20 CURVE SMOOTH"
);
}
);
width = 1341;
}
);
note = uni1C63;
unicode = 1C63;
},
{
glyphname = uni1C64;
lastChange = "2016-11-10 14:20:44 +0000";
layers = (
{
layerId = "82F4720C-DC9D-4527-A6D6-45BE47925051";
paths = (
{
closed = 1;
nodes = (
"813 872 LINE",
"813 0 LINE",
"969 0 LINE",
"969 1092 LINE",
"1071 1237 LINE",
"928 1413 OFFCURVE",
"772 1485 OFFCURVE",
"604 1485 CURVE SMOOTH",
"472 1485 OFFCURVE",
"326 1443 OFFCURVE",
"139 1223 CURVE",
"254 1112 LINE",
"269 1132 LINE SMOOTH",
"348 1235 OFFCURVE",
"480 1331 OFFCURVE",
"604 1331 CURVE SMOOTH",
"696 1331 OFFCURVE",
"794 1293 OFFCURVE",
"862 1225 CURVE",
"61 96 LINE",
"195 0 LINE"
);
}
);
width = 1149;
}
);
note = uni1C64;
unicode = 1C64;
},
{
glyphname = uni1C65;
lastChange = "2016-11-10 14:20:44 +0000";
layers = (
{
layerId = "82F4720C-DC9D-4527-A6D6-45BE47925051";
paths = (
{
closed = 1;
nodes = (
"770 -20 OFFCURVE",
"925 62 OFFCURVE",
"1044 205 CURVE SMOOTH",
"1075 242 LINE",
"961 352 LINE",
"946 332 LINE SMOOTH",
"850 211 OFFCURVE",
"725 133 OFFCURVE",
"610 133 CURVE SMOOTH",
"513 133 OFFCURVE",
"419 173 OFFCURVE",
"352 240 CURVE",
"1153 1368 LINE",
"1020 1464 LINE",
"401 592 LINE",
"401 1464 LINE",
"246 1464 LINE",
"246 373 LINE",
"143 227 LINE",
"286 52 OFFCURVE",
"443 -20 OFFCURVE",
"610 -20 CURVE SMOOTH"
);
}
);
width = 1202;
}
);
note = uni1C65;
unicode = 1C65;
},
{
glyphname = uni1C66;
lastChange = "2016-11-10 14:20:44 +0000";
layers = (
{
layerId = "82F4720C-DC9D-4527-A6D6-45BE47925051";
paths = (
{
closed = 1;
nodes = (
"780 330 LINE",
"1061 -20 LINE",
"1298 184 OFFCURVE",
"1460 476 OFFCURVE",
"1460 760 CURVE SMOOTH",
"1460 1040 OFFCURVE",
"1335 1301 OFFCURVE",
"1128 1485 CURVE",
"1014 1350 LINE",
"1142 1246 OFFCURVE",
"1278 1003 OFFCURVE",
"1278 760 CURVE SMOOTH",
"1278 587 OFFCURVE",
"1226 415 OFFCURVE",
"1055 227 CURVE",
"780 575 LINE",
"506 227 LINE",
"337 412 OFFCURVE",
"283 583 OFFCURVE",
"283 760 CURVE SMOOTH",
"283 1001 OFFCURVE",
"422 1251 OFFCURVE",
"547 1350 CURVE",
"432 1485 LINE",
"217 1290 OFFCURVE",
"100 1031 OFFCURVE",
"100 760 CURVE SMOOTH",
"100 477 OFFCURVE",
"263 184 OFFCURVE",
"500 -20 CURVE"
);
}
);
width = 1561;
}
);
note = uni1C66;
unicode = 1C66;
},
{
glyphname = uni1C67;
lastChange = "2016-11-10 14:20:44 +0000";
layers = (
{
layerId = "82F4720C-DC9D-4527-A6D6-45BE47925051";
paths = (
{
closed = 1;
nodes = (
"1022 0 LINE",
"1022 1462 LINE",
"846 1462 LINE",
"846 1257 LINE",
"600 1485 LINE",
"309 1392 OFFCURVE",
"82 1149 OFFCURVE",
"82 868 CURVE SMOOTH",
"82 585 OFFCURVE",
"311 344 OFFCURVE",
"600 252 CURVE",
"846 477 LINE",
"846 0 LINE"
);
},
{
closed = 1;
nodes = (
"392 499 OFFCURVE",
"264 663 OFFCURVE",
"264 868 CURVE SMOOTH",
"264 1076 OFFCURVE",
"395 1236 OFFCURVE",
"600 1311 CURVE",
"846 1073 LINE",
"846 662 LINE",
"600 426 LINE"
);
}
);
width = 1196;
}
);
note = uni1C67;
unicode = 1C67;
},
{
glyphname = uni1C68;
lastChange = "2016-11-10 14:15:24 +0000";
layers = (
{
layerId = "82F4720C-DC9D-4527-A6D6-45BE47925051";
paths = (
{
closed = 1;
nodes = (
"324 283 LINE",
"565 -20 LINE",
"838 76 OFFCURVE",
"1010 326 OFFCURVE",
"1010 631 CURVE SMOOTH",
"1010 792 OFFCURVE",
"972 933 OFFCURVE",
"896 1055 CURVE SMOOTH",
"744 1299 OFFCURVE",
"422 1457 OFFCURVE",
"94 1485 CURVE",
"94 1313 LINE",
"566 1252 OFFCURVE",
"827 1004 OFFCURVE",
"827 621 CURVE SMOOTH",
"827 534 OFFCURVE",
"815 465 OFFCURVE",
"780 401 CURVE",
"186 1147 LINE",
"82 1055 LINE",
"707 270 LINE",
"683 240 OFFCURVE",
"661 218 OFFCURVE",
"642 203 CURVE SMOOTH",
"604 174 LINE",
"324 526 LINE",
"82 223 LINE",
"82 -20 LINE"
);
}
);
width = 1110;
}
);
note = uni1C68;
unicode = 1C68;
},
{
glyphname = uni1C69;
lastChange = "2016-11-10 14:20:44 +0000";
layers = (
{
layerId = "82F4720C-DC9D-4527-A6D6-45BE47925051";
paths = (
{
closed = 1;
nodes = (
"851 60 OFFCURVE",
"1034 325 OFFCURVE",
"1034 629 CURVE SMOOTH",
"1034 924 OFFCURVE",
"871 1153 OFFCURVE",
"602 1241 CURVE",
"529 1221 OFFCURVE",
"392 1096 OFFCURVE",
"356 1016 CURVE",
"356 1464 LINE",
"180 1464 LINE",
"180 727 LINE",
"356 727 LINE",
"381 830 OFFCURVE",
"497 1034 OFFCURVE",
"602 1067 CURVE",
"626 1056 LINE SMOOTH",
"741 1004 OFFCURVE",
"852 848 OFFCURVE",
"852 629 CURVE SMOOTH",
"852 425 OFFCURVE",
"763 258 OFFCURVE",
"614 170 CURVE",
"266 467 LINE",
"164 352 LINE",
"602 -20 LINE"
);
}
);
width = 1116;
}
);
note = uni1C69;
unicode = 1C69;
},
{
glyphname = uni1C6A;
lastChange = "2016-11-10 14:20:44 +0000";
layers = (
{
layerId = "82F4720C-DC9D-4527-A6D6-45BE47925051";
paths = (
{
closed = 1;
nodes = (
"922 -20 OFFCURVE",
"1155 113 OFFCURVE",
"1296 330 CURVE",
"1127 503 LINE",
"1049 584 LINE",
"1049 1106 LINE SMOOTH",
"1049 1365 OFFCURVE",
"915 1493 OFFCURVE",
"670 1493 CURVE SMOOTH",
"421 1493 OFFCURVE",
"291 1361 OFFCURVE",
"291 1106 CURVE SMOOTH",
"291 584 LINE",
"275 567 OFFCURVE",
"192 482 OFFCURVE",
"43 330 CURVE",
"186 111 OFFCURVE",
"418 -20 OFFCURVE",
"670 -20 CURVE SMOOTH"
);
},
{
closed = 1;
nodes = (
"494 117 OFFCURVE",
"313 232 OFFCURVE",
"242 313 CURVE",
"371 442 LINE",
"446 382 OFFCURVE",
"566 340 OFFCURVE",
"670 340 CURVE SMOOTH",
"774 340 OFFCURVE",
"889 379 OFFCURVE",
"969 442 CURVE",
"1098 313 LINE",
"1015 220 OFFCURVE",
"835 117 OFFCURVE",
"670 117 CURVE SMOOTH"
);
},
{
closed = 1;
nodes = (
"603 498 OFFCURVE",
"536 521 OFFCURVE",
"467 567 CURVE",
"467 1098 LINE SMOOTH",
"467 1283 OFFCURVE",
"539 1339 OFFCURVE",
"670 1339 CURVE SMOOTH",
"798 1339 OFFCURVE",
"872 1283 OFFCURVE",
"872 1098 CURVE SMOOTH",
"872 567 LINE",
"816 526 OFFCURVE",
"735 498 OFFCURVE",
"670 498 CURVE SMOOTH"
);
}
);
width = 1339;
}
);
note = uni1C6A;
unicode = 1C6A;
},
{
glyphname = uni1C6B;
lastChange = "2016-11-10 14:20:44 +0000";
layers = (
{
layerId = "82F4720C-DC9D-4527-A6D6-45BE47925051";
paths = (
{
closed = 1;
nodes = (
"524 600 LINE",
"524 754 LINE",
"442 754 LINE SMOOTH",
"341 754 OFFCURVE",
"262 825 OFFCURVE",
"262 922 CURVE SMOOTH",
"262 1061 OFFCURVE",
"550 1277 OFFCURVE",
"694 1325 CURVE",
"831 1282 OFFCURVE",
"1126 1061 OFFCURVE",
"1126 922 CURVE SMOOTH",
"1126 825 OFFCURVE",
"1047 754 OFFCURVE",
"946 754 CURVE SMOOTH",
"864 754 LINE",
"864 600 LINE",
"946 600 LINE SMOOTH",
"1165 600 OFFCURVE",
"1307 723 OFFCURVE",
"1307 922 CURVE SMOOTH",
"1307 991 OFFCURVE",
"1278 1063 OFFCURVE",
"1220 1136 CURVE SMOOTH",
"1104 1283 OFFCURVE",
"845 1442 OFFCURVE",
"694 1485 CURVE",
"619 1464 OFFCURVE",
"528 1419 OFFCURVE",
"420 1350 CURVE SMOOTH",
"203 1212 OFFCURVE",
"82 1061 OFFCURVE",
"82 922 CURVE SMOOTH",
"82 723 OFFCURVE",
"223 600 OFFCURVE",
"442 600 CURVE SMOOTH"
);
},
{
closed = 1;
nodes = (
"917 -20 OFFCURVE",
"1056 137 OFFCURVE",
"1077 508 CURVE",
"913 508 LINE",
"913 273 OFFCURVE",
"835 119 OFFCURVE",
"694 119 CURVE SMOOTH",
"578 119 OFFCURVE",
"488 197 OFFCURVE",
"459 317 CURVE",
"700 246 LINE",
"776 334 LINE",
"776 1059 LINE",
"612 1059 LINE",
"612 401 LINE",
"274 502 LINE",
"274 491 LINE SMOOTH",
"274 402 OFFCURVE",
"291 316 OFFCURVE",
"325 233 CURVE SMOOTH",
"393 65 OFFCURVE",
"523 -20 OFFCURVE",
"694 -20 CURVE SMOOTH"
);
}
);
width = 1389;
}
);
note = uni1C6B;
unicode = 1C6B;
},
{
glyphname = uni1C6C;
lastChange = "2016-11-10 14:20:44 +0000";
layers = (
{
layerId = "82F4720C-DC9D-4527-A6D6-45BE47925051";
paths = (
{
closed = 1;
nodes = (
"547 115 LINE",
"520 134 OFFCURVE",
"483 176 OFFCURVE",
"436 242 CURVE SMOOTH",
"340 374 OFFCURVE",
"283 541 OFFCURVE",
"283 705 CURVE SMOOTH",
"283 888 OFFCURVE",
"341 1054 OFFCURVE",
"506 1237 CURVE",
"780 889 LINE",
"1055 1237 LINE",
"1224 1050 OFFCURVE",
"1278 882 OFFCURVE",
"1278 705 CURVE SMOOTH",
"1278 623 OFFCURVE",
"1265 542 OFFCURVE",
"1238 462 CURVE SMOOTH",
"1184 301 OFFCURVE",
"1067 152 OFFCURVE",
"1014 115 CURVE",
"1128 -20 LINE",
"1344 173 OFFCURVE",
"1460 433 OFFCURVE",
"1460 705 CURVE SMOOTH",
"1460 761 OFFCURVE",
"1454 817 OFFCURVE",
"1446 860 CURVE SMOOTH",
"1438 903 OFFCURVE",
"1416 976 OFFCURVE",
"1392 1036 CURVE SMOOTH",
"1367 1096 OFFCURVE",
"1333 1161 OFFCURVE",
"1292 1222 CURVE SMOOTH",
"1251 1282 OFFCURVE",
"1189 1364 OFFCURVE",
"1128 1421 CURVE SMOOTH",
"1061 1485 LINE",
"780 1135 LINE",
"500 1485 LINE",
"433 1421 LINE SMOOTH",
"372 1365 OFFCURVE",
"305 1276 OFFCURVE",
"266 1218 CURVE SMOOTH",
"226 1160 OFFCURVE",
"193 1096 OFFCURVE",
"169 1036 CURVE SMOOTH",
"144 976 OFFCURVE",
"122 903 OFFCURVE",
"114 860 CURVE SMOOTH",
"106 817 OFFCURVE",
"100 761 OFFCURVE",
"100 705 CURVE SMOOTH",
"100 434 OFFCURVE",
"216 175 OFFCURVE",
"432 -20 CURVE"
);
}
);
width = 1561;
}
);
note = uni1C6C;
unicode = 1C6C;
},
{
glyphname = uni1C6D;
lastChange = "2016-11-10 14:20:44 +0000";
layers = (
{
layerId = "82F4720C-DC9D-4527-A6D6-45BE47925051";
paths = (
{
closed = 1;
nodes = (
"1088 -20 OFFCURVE",
"1229 156 OFFCURVE",
"1241 395 CURVE",
"1083 395 LINE",
"1083 243 OFFCURVE",
"993 133 OFFCURVE",
"885 133 CURVE SMOOTH",
"756 133 OFFCURVE",
"676 279 OFFCURVE",
"676 510 CURVE SMOOTH",
"676 746 OFFCURVE",
"722 858 OFFCURVE",
"889 858 CURVE SMOOTH",
"976 858 OFFCURVE",
"1107 781 OFFCURVE",
"1239 649 CURVE",
"1239 1164 OFFCURVE",
"1006 1485 OFFCURVE",
"653 1485 CURVE SMOOTH",
"329 1485 OFFCURVE",
"100 1168 OFFCURVE",
"100 741 CURVE SMOOTH",
"100 522 OFFCURVE",
"146 313 OFFCURVE",
"237 116 CURVE SMOOTH",
"287 0 LINE",
"485 0 LINE",
"433 106 LINE SMOOTH",
"344 283 OFFCURVE",
"281 524 OFFCURVE",
"281 741 CURVE SMOOTH",
"281 1076 OFFCURVE",
"440 1331 OFFCURVE",
"653 1331 CURVE SMOOTH",
"817 1331 OFFCURVE",
"1019 1150 OFFCURVE",
"1038 938 CURVE",
"962 987 OFFCURVE",
"884 1012 OFFCURVE",
"803 1012 CURVE SMOOTH",
"622 1012 OFFCURVE",
"510 821 OFFCURVE",
"510 510 CURVE SMOOTH",
"510 203 OFFCURVE",
"645 -20 OFFCURVE",
"885 -20 CURVE SMOOTH"
);
}
);
width = 1341;
}
);
note = uni1C6D;
unicode = 1C6D;
},
{
glyphname = uni1C6E;
lastChange = "2016-11-10 14:20:44 +0000";
layers = (
{
layerId = "82F4720C-DC9D-4527-A6D6-45BE47925051";
paths = (
{
closed = 1;
nodes = (
"821 -20 OFFCURVE",
"1015 125 OFFCURVE",
"1102 354 CURVE",
"913 354 LINE",
"845 218 OFFCURVE",
"720 133 OFFCURVE",
"588 133 CURVE SMOOTH",
"460 133 OFFCURVE",
"346 204 OFFCURVE",
"283 336 CURVE",
"1102 1110 LINE",
"1015 1341 OFFCURVE",
"819 1485 OFFCURVE",
"588 1485 CURVE SMOOTH",
"356 1485 OFFCURVE",
"161 1339 OFFCURVE",
"74 1110 CURVE",
"262 1110 LINE",
"330 1245 OFFCURVE",
"456 1331 OFFCURVE",
"588 1331 CURVE SMOOTH",
"717 1331 OFFCURVE",
"826 1264 OFFCURVE",
"891 1128 CURVE",
"74 354 LINE",
"159 126 OFFCURVE",
"353 -20 OFFCURVE",
"588 -20 CURVE SMOOTH"
);
}
);
width = 1176;
}
);
note = uni1C6E;
unicode = 1C6E;
},
{
glyphname = uni1C6F;
lastChange = "2016-11-10 14:20:44 +0000";
layers = (
{
layerId = "82F4720C-DC9D-4527-A6D6-45BE47925051";
paths = (
{
closed = 1;
nodes = (
"1054 -20 OFFCURVE",
"1266 90 OFFCURVE",
"1430 326 CURVE",
"1329 449 LINE",
"1271 368 OFFCURVE",
"1210 304 OFFCURVE",
"1147 258 CURVE",
"1147 932 LINE",
"1325 1280 LINE",
"1176 1419 OFFCURVE",
"997 1485 OFFCURVE",
"764 1485 CURVE SMOOTH",
"436 1485 OFFCURVE",
"228 1376 OFFCURVE",
"61 1139 CURVE",
"162 1016 LINE",
"212 1089 OFFCURVE",
"273 1152 OFFCURVE",
"344 1204 CURVE",
"344 532 LINE",
"166 184 LINE",
"315 45 OFFCURVE",
"494 -20 OFFCURVE",
"727 -20 CURVE SMOOTH"
);
},
{
closed = 1;
nodes = (
"600 133 OFFCURVE",
"486 164 OFFCURVE",
"385 225 CURVE",
"520 492 LINE",
"520 1294 LINE",
"593 1319 OFFCURVE",
"675 1331 OFFCURVE",
"764 1331 CURVE SMOOTH",
"891 1331 OFFCURVE",
"1005 1300 OFFCURVE",
"1106 1239 CURVE",
"971 973 LINE",
"971 168 LINE",
"901 145 OFFCURVE",
"820 133 OFFCURVE",
"727 133 CURVE SMOOTH"
);
}
);
width = 1491;
}
);
note = uni1C6F;
unicode = 1C6F;
},
{
glyphname = uni1C70;
lastChange = "2016-11-10 14:20:44 +0000";
layers = (
{
layerId = "82F4720C-DC9D-4527-A6D6-45BE47925051";
paths = (
{
closed = 1;
nodes = (
"823 0 LINE",
"823 1284 LINE",
"1026 1203 OFFCURVE",
"1190 982 OFFCURVE",
"1190 727 CURVE SMOOTH",
"1190 650 OFFCURVE",
"1176 576 OFFCURVE",
"1149 505 CURVE SMOOTH",
"1094 362 OFFCURVE",
"979 236 OFFCURVE",
"915 205 CURVE",
"995 53 LINE",
"1038 74 OFFCURVE",
"1093 122 OFFCURVE",
"1160 195 CURVE SMOOTH",
"1293 341 OFFCURVE",
"1370 532 OFFCURVE",
"1370 727 CURVE SMOOTH",
"1370 844 OFFCURVE",
"1346 953 OFFCURVE",
"1297 1055 CURVE SMOOTH",
"1199 1258 OFFCURVE",
"1000 1413 OFFCURVE",
"823 1462 CURVE",
"647 1462 LINE",
"647 176 LINE",
"446 260 OFFCURVE",
"281 478 OFFCURVE",
"281 735 CURVE SMOOTH",
"281 810 OFFCURVE",
"295 884 OFFCURVE",
"322 957 CURVE SMOOTH",
"377 1101 OFFCURVE",
"495 1226 OFFCURVE",
"555 1257 CURVE",
"475 1409 LINE",
"426 1384 OFFCURVE",
"370 1335 OFFCURVE",
"305 1261 CURVE SMOOTH",
"175 1113 OFFCURVE",
"100 927 OFFCURVE",
"100 735 CURVE SMOOTH",
"100 376 OFFCURVE",
"364 80 OFFCURVE",
"647 0 CURVE"
);
}
);
width = 1470;
}
);
note = uni1C70;
unicode = 1C70;
},
{
glyphname = uni1C71;
lastChange = "2016-11-10 14:20:44 +0000";
layers = (
{
layerId = "82F4720C-DC9D-4527-A6D6-45BE47925051";
paths = (
{
closed = 1;
nodes = (
"779 -20 OFFCURVE",
"939 108 OFFCURVE",
"1040 311 CURVE",
"846 311 LINE",
"790 200 OFFCURVE",
"696 133 OFFCURVE",
"600 133 CURVE SMOOTH",
"511 133 OFFCURVE",
"413 193 OFFCURVE",
"360 281 CURVE",
"942 1153 LINE",
"982 1105 OFFCURVE",
"1016 1042 OFFCURVE",
"1029 998 CURVE",
"1036 981 LINE",
"1114 1176 LINE",
"998 1369 OFFCURVE",
"800 1485 OFFCURVE",
"584 1485 CURVE SMOOTH",
"413 1485 OFFCURVE",
"262 1432 OFFCURVE",
"143 1325 CURVE",
"272 1235 LINE",
"272 444 LINE",
"160 279 LINE",
"297 48 OFFCURVE",
"432 -20 OFFCURVE",
"600 -20 CURVE SMOOTH"
);
},
{
closed = 1;
nodes = (
"428 1311 LINE",
"481 1324 OFFCURVE",
"533 1331 OFFCURVE",
"584 1331 CURVE SMOOTH",
"661 1331 OFFCURVE",
"739 1308 OFFCURVE",
"817 1262 CURVE",
"428 676 LINE"
);
}
);
width = 1163;
}
);
note = uni1C71;
unicode = 1C71;
},
{
glyphname = uni1C72;
lastChange = "2016-11-10 14:20:44 +0000";
layers = (
{
layerId = "82F4720C-DC9D-4527-A6D6-45BE47925051";
paths = (
{
closed = 1;
nodes = (
"753 -20 OFFCURVE",
"900 41 OFFCURVE",
"979 105 CURVE SMOOTH",
"1020 139 LINE",
"891 229 LINE",
"891 1020 LINE",
"1004 1186 LINE",
"973 1236 LINE SMOOTH",
"889 1379 OFFCURVE",
"748 1485 OFFCURVE",
"563 1485 CURVE SMOOTH",
"387 1485 OFFCURVE",
"227 1361 OFFCURVE",
"123 1153 CURVE",
"317 1153 LINE",
"372 1262 OFFCURVE",
"467 1331 OFFCURVE",
"563 1331 CURVE SMOOTH",
"652 1331 OFFCURVE",
"747 1273 OFFCURVE",
"803 1184 CURVE",
"221 311 LINE",
"183 356 OFFCURVE",
"154 408 OFFCURVE",
"134 466 CURVE",
"127 483 LINE",
"49 289 LINE",
"162 97 OFFCURVE",
"364 -20 OFFCURVE",
"580 -20 CURVE SMOOTH"
);
},
{
closed = 1;
nodes = (
"497 133 OFFCURVE",
"411 160 OFFCURVE",
"346 203 CURVE",
"735 788 LINE",
"735 154 LINE",
"688 143 LINE SMOOTH",
"661 136 OFFCURVE",
"625 133 OFFCURVE",
"580 133 CURVE SMOOTH"
);
}
);
width = 1163;
}
);
note = uni1C72;
unicode = 1C72;
},
{
glyphname = uni1C73;
lastChange = "2016-11-10 14:20:44 +0000";
layers = (
{
layerId = "82F4720C-DC9D-4527-A6D6-45BE47925051";
paths = (
{
closed = 1;
nodes = (
"1024 -20 OFFCURVE",
"1270 282 OFFCURVE",
"1270 731 CURVE SMOOTH",
"1270 1182 OFFCURVE",
"1023 1483 OFFCURVE",
"647 1483 CURVE SMOOTH",
"371 1483 OFFCURVE",
"172 1309 OFFCURVE",
"92 977 CURVE",
"281 977 LINE",
"296 1132 OFFCURVE",
"467 1329 OFFCURVE",
"647 1329 CURVE SMOOTH",
"826 1329 OFFCURVE",
"966 1229 OFFCURVE",
"1038 1038 CURVE",
"989 1071 OFFCURVE",
"930 1087 OFFCURVE",
"860 1087 CURVE SMOOTH",
"660 1087 OFFCURVE",
"520 939 OFFCURVE",
"520 731 CURVE SMOOTH",
"520 524 OFFCURVE",
"660 375 OFFCURVE",
"860 375 CURVE SMOOTH",
"930 375 OFFCURVE",
"989 391 OFFCURVE",
"1038 424 CURVE",
"965 240 OFFCURVE",
"822 133 OFFCURVE",
"647 133 CURVE SMOOTH",
"468 133 OFFCURVE",
"297 328 OFFCURVE",
"281 485 CURVE",
"92 485 LINE",
"169 160 OFFCURVE",
"364 -20 OFFCURVE",
"647 -20 CURVE SMOOTH"
);
},
{
closed = 1;
nodes = (
"762 520 OFFCURVE",
"666 615 OFFCURVE",
"666 731 CURVE SMOOTH",
"666 846 OFFCURVE",
"761 942 OFFCURVE",
"877 942 CURVE SMOOTH",
"992 942 OFFCURVE",
"1087 846 OFFCURVE",
"1087 731 CURVE SMOOTH",
"1087 618 OFFCURVE",
"990 520 OFFCURVE",
"877 520 CURVE SMOOTH"
);
}
);
width = 1370;
}
);
note = uni1C73;
unicode = 1C73;
},
{
glyphname = uni1C74;
lastChange = "2016-11-10 14:20:44 +0000";
layers = (
{
layerId = "82F4720C-DC9D-4527-A6D6-45BE47925051";
paths = (
{
closed = 1;
nodes = (
"350 0 LINE",
"350 868 LINE",
"754 1260 LINE",
"911 1139 OFFCURVE",
"1008 942 OFFCURVE",
"1008 727 CURVE SMOOTH",
"1008 490 OFFCURVE",
"890 257 OFFCURVE",
"691 58 CURVE SMOOTH",
"633 0 LINE",
"872 0 LINE",
"1061 203 OFFCURVE",
"1188 475 OFFCURVE",
"1188 727 CURVE SMOOTH",
"1188 1026 OFFCURVE",
"963 1373 OFFCURVE",
"754 1485 CURVE",
"350 1094 LINE",
"350 1462 LINE",
"174 1462 LINE",
"174 0 LINE"
);
}
);
width = 1288;
}
);
note = uni1C74;
unicode = 1C74;
},
{
glyphname = uni1C75;
lastChange = "2016-11-10 14:15:24 +0000";
layers = (
{
layerId = "82F4720C-DC9D-4527-A6D6-45BE47925051";
paths = (
{
closed = 1;
nodes = (
"823 0 LINE",
"913 26 OFFCURVE",
"1002 75 OFFCURVE",
"1091 148 CURVE SMOOTH",
"1267 292 OFFCURVE",
"1370 502 OFFCURVE",
"1370 735 CURVE SMOOTH",
"1370 830 OFFCURVE",
"1352 924 OFFCURVE",
"1317 1015 CURVE SMOOTH",
"1245 1197 OFFCURVE",
"1090 1362 OFFCURVE",
"995 1409 CURVE",
"915 1257 LINE",
"947 1241 OFFCURVE",
"988 1205 OFFCURVE",
"1037 1148 CURVE SMOOTH",
"1135 1034 OFFCURVE",
"1190 886 OFFCURVE",
"1190 735 CURVE SMOOTH",
"1190 484 OFFCURVE",
"1028 262 OFFCURVE",
"823 178 CURVE",
"823 1462 LINE",
"647 1462 LINE",
"363 1381 OFFCURVE",
"100 1086 OFFCURVE",
"100 727 CURVE SMOOTH",
"100 628 OFFCURVE",
"119 532 OFFCURVE",
"158 439 CURVE SMOOTH",
"234 254 OFFCURVE",
"387 97 OFFCURVE",
"475 53 CURVE",
"555 205 LINE",
"527 219 OFFCURVE",
"489 253 OFFCURVE",
"441 307 CURVE SMOOTH",
"344 415 OFFCURVE",
"281 571 OFFCURVE",
"281 727 CURVE SMOOTH",
"281 984 OFFCURVE",
"443 1201 OFFCURVE",
"647 1286 CURVE",
"647 0 LINE"
);
}
);
width = 1470;
}
);
note = uni1C75;
unicode = 1C75;
},
{
glyphname = uni1C76;
lastChange = "2016-11-10 14:20:44 +0000";
layers = (
{
layerId = "82F4720C-DC9D-4527-A6D6-45BE47925051";
paths = (
{
closed = 1;
nodes = (
"1011 -20 OFFCURVE",
"1241 296 OFFCURVE",
"1241 723 CURVE SMOOTH",
"1241 790 OFFCURVE",
"1237 854 OFFCURVE",
"1229 913 CURVE",
"1047 913 LINE",
"1056 843 OFFCURVE",
"1061 780 OFFCURVE",
"1061 723 CURVE SMOOTH",
"1061 388 OFFCURVE",
"900 133 OFFCURVE",
"688 133 CURVE SMOOTH",
"524 133 OFFCURVE",
"326 314 OFFCURVE",
"303 526 CURVE",
"378 477 OFFCURVE",
"457 453 OFFCURVE",
"539 453 CURVE SMOOTH",
"716 453 OFFCURVE",
"831 638 OFFCURVE",
"831 954 CURVE SMOOTH",
"831 1262 OFFCURVE",
"694 1485 OFFCURVE",
"457 1485 CURVE SMOOTH",
"253 1485 OFFCURVE",
"115 1310 OFFCURVE",
"100 1069 CURVE",
"258 1069 LINE",
"258 1220 OFFCURVE",
"345 1331 OFFCURVE",
"457 1331 CURVE SMOOTH",
"586 1331 OFFCURVE",
"666 1186 OFFCURVE",
"666 954 CURVE SMOOTH",
"666 718 OFFCURVE",
"620 606 OFFCURVE",
"453 606 CURVE SMOOTH",
"364 606 OFFCURVE",
"230 687 OFFCURVE",
"102 815 CURVE",
"102 299 OFFCURVE",
"336 -20 OFFCURVE",
"688 -20 CURVE SMOOTH"
);
},
{
closed = 1;
nodes = (
"1191 1044 OFFCURVE",
"1249 1102 OFFCURVE",
"1249 1171 CURVE SMOOTH",
"1249 1240 OFFCURVE",
"1191 1298 OFFCURVE",
"1122 1298 CURVE SMOOTH",
"1053 1298 OFFCURVE",
"995 1240 OFFCURVE",
"995 1171 CURVE SMOOTH",
"995 1102 OFFCURVE",
"1053 1044 OFFCURVE",
"1122 1044 CURVE SMOOTH"
);
}
);
width = 1341;
}
);
note = uni1C76;
unicode = 1C76;
},
{
glyphname = uni1C77;
lastChange = "2016-11-10 14:20:44 +0000";
layers = (
{
layerId = "82F4720C-DC9D-4527-A6D6-45BE47925051";
paths = (
{
closed = 1;
nodes = (
"709 266 LINE",
"997 -20 LINE",
"1064 36 LINE SMOOTH",
"1087 55 OFFCURVE",
"1113 79 OFFCURVE",
"1140 109 CURVE SMOOTH",
"1194 169 OFFCURVE",
"1227 210 OFFCURVE",
"1263 271 CURVE SMOOTH",
"1299 331 OFFCURVE",
"1323 388 OFFCURVE",
"1343 453 CURVE SMOOTH",
"1362 518 OFFCURVE",
"1370 581 OFFCURVE",
"1370 649 CURVE SMOOTH",
"1370 798 OFFCURVE",
"1339 938 OFFCURVE",
"1277 1069 CURVE SMOOTH",
"1153 1331 OFFCURVE",
"935 1485 OFFCURVE",
"680 1485 CURVE SMOOTH",
"471 1485 OFFCURVE",
"354 1352 OFFCURVE",
"354 1184 CURVE SMOOTH",
"354 1082 OFFCURVE",
"391 988 OFFCURVE",
"465 902 CURVE SMOOTH",
"612 730 OFFCURVE",
"881 629 OFFCURVE",
"1190 629 CURVE",
"1190 465 OFFCURVE",
"1115 304 OFFCURVE",
"999 207 CURVE",
"709 504 LINE",
"418 207 LINE",
"328 305 OFFCURVE",
"283 431 OFFCURVE",
"283 586 CURVE SMOOTH",
"283 705 OFFCURVE",
"312 819 OFFCURVE",
"371 928 CURVE",
"207 1004 LINE",
"136 871 OFFCURVE",
"100 731 OFFCURVE",
"100 586 CURVE SMOOTH",
"100 331 OFFCURVE",
"224 120 OFFCURVE",
"387 5 CURVE SMOOTH",
"420 -20 LINE"
);
},
{
closed = 1;
nodes = (
"855 776 OFFCURVE",
"532 938 OFFCURVE",
"532 1171 CURVE SMOOTH",
"532 1270 OFFCURVE",
"598 1331 OFFCURVE",
"702 1331 CURVE SMOOTH",
"781 1331 OFFCURVE",
"857 1302 OFFCURVE",
"931 1244 CURVE SMOOTH",
"1078 1128 OFFCURVE",
"1184 909 OFFCURVE",
"1184 776 CURVE"
);
}
);
width = 1470;
}
);
note = uni1C77;
unicode = 1C77;
},
{
glyphname = uni1C78;
lastChange = "2016-11-10 14:20:44 +0000";
layers = (
{
layerId = "82F4720C-DC9D-4527-A6D6-45BE47925051";
paths = (
{
closed = 1;
nodes = (
"353 1208 OFFCURVE",
"401 1261 OFFCURVE",
"401 1348 CURVE SMOOTH",
"401 1436 OFFCURVE",
"353 1485 OFFCURVE",
"272 1485 CURVE SMOOTH",
"192 1485 OFFCURVE",
"147 1436 OFFCURVE",
"147 1348 CURVE SMOOTH",
"147 1261 OFFCURVE",
"192 1208 OFFCURVE",
"272 1208 CURVE SMOOTH"
);
}
);
width = 549;
}
);
note = uni1C78;
unicode = 1C78;
},
{
glyphname = uni1C79;
lastChange = "2016-11-10 14:20:44 +0000";
layers = (
{
layerId = "82F4720C-DC9D-4527-A6D6-45BE47925051";
paths = (
{
closed = 1;
nodes = (
"353 -29 OFFCURVE",
"401 24 OFFCURVE",
"401 111 CURVE SMOOTH",
"401 199 OFFCURVE",
"353 248 OFFCURVE",
"272 248 CURVE SMOOTH",
"192 248 OFFCURVE",
"147 199 OFFCURVE",
"147 111 CURVE SMOOTH",
"147 24 OFFCURVE",
"192 -29 OFFCURVE",
"272 -29 CURVE SMOOTH"
);
}
);
width = 549;
}
);
note = uni1C79;
unicode = 1C79;
},
{
glyphname = uni1C7A;
lastChange = "2016-11-10 14:20:44 +0000";
layers = (
{
layerId = "82F4720C-DC9D-4527-A6D6-45BE47925051";
paths = (
{
closed = 1;
nodes = (
"353 848 OFFCURVE",
"401 902 OFFCURVE",
"401 987 CURVE SMOOTH",
"401 1076 OFFCURVE",
"356 1126 OFFCURVE",
"272 1126 CURVE SMOOTH",
"189 1126 OFFCURVE",
"147 1075 OFFCURVE",
"147 987 CURVE SMOOTH",
"147 900 OFFCURVE",
"193 848 OFFCURVE",
"272 848 CURVE SMOOTH"
);
},
{
closed = 1;
nodes = (
"353 -29 OFFCURVE",
"401 24 OFFCURVE",
"401 111 CURVE SMOOTH",
"401 199 OFFCURVE",
"353 248 OFFCURVE",
"272 248 CURVE SMOOTH",
"192 248 OFFCURVE",
"147 199 OFFCURVE",
"147 111 CURVE SMOOTH",
"147 24 OFFCURVE",
"192 -29 OFFCURVE",
"272 -29 CURVE SMOOTH"
);
}
);
width = 549;
}
);
note = uni1C7A;
unicode = 1C7A;
},
{
glyphname = uni1C7B;
lastChange = "2016-11-10 14:20:44 +0000";
layers = (
{
layerId = "82F4720C-DC9D-4527-A6D6-45BE47925051";
paths = (
{
closed = 1;
nodes = (
"204 865 OFFCURVE",
"255 907 OFFCURVE",
"315 907 CURVE SMOOTH",
"339 907 OFFCURVE",
"401 891 OFFCURVE",
"502 860 CURVE SMOOTH",
"602 829 OFFCURVE",
"670 813 OFFCURVE",
"705 813 CURVE SMOOTH",
"801 813 OFFCURVE",
"894 893 OFFCURVE",
"942 1014 CURVE",
"862 1069 LINE",
"822 988 OFFCURVE",
"771 948 OFFCURVE",
"709 948 CURVE SMOOTH",
"690 948 OFFCURVE",
"632 964 OFFCURVE",
"535 995 CURVE SMOOTH",
"437 1026 OFFCURVE",
"371 1042 OFFCURVE",
"336 1042 CURVE SMOOTH",
"230 1042 OFFCURVE",
"145 971 OFFCURVE",
"82 829 CURVE",
"162 782 LINE"
);
}
);
width = 1024;
}
);
note = uni1C7B;
unicode = 1C7B;
},
{
glyphname = uni1C7C;
lastChange = "2016-11-10 14:15:24 +0000";
layers = (
{
layerId = "82F4720C-DC9D-4527-A6D6-45BE47925051";
paths = (
{
closed = 1;
nodes = (
"586 858 LINE",
"586 997 LINE",
"82 997 LINE",
"82 858 LINE"
);
}
);
width = 668;
}
);
note = uni1C7C;
unicode = 1C7C;
},
{
glyphname = uni1C7D;
lastChange = "2016-11-10 14:15:24 +0000";
layers = (
{
layerId = "82F4720C-DC9D-4527-A6D6-45BE47925051";
paths = (
{
closed = 1;
nodes = (
"363 -15 OFFCURVE",
"473 25 OFFCURVE",
"599 98 CURVE SMOOTH",
"850 245 OFFCURVE",
"989 497 OFFCURVE",
"989 805 CURVE SMOOTH",
"989 934 OFFCURVE",
"968 1050 OFFCURVE",
"927 1154 CURVE SMOOTH",
"843 1362 OFFCURVE",
"687 1485 OFFCURVE",
"520 1485 CURVE SMOOTH",
"323 1485 OFFCURVE",
"195 1349 OFFCURVE",
"195 1128 CURVE SMOOTH",
"195 1032 OFFCURVE",
"223 938 OFFCURVE",
"278 846 CURVE SMOOTH",
"388 662 OFFCURVE",
"613 496 OFFCURVE",
"737 465 CURVE",
"686 357 OFFCURVE",
"504 206 OFFCURVE",
"371 162 CURVE",
"236 569 LINE",
"82 518 LINE",
"268 -20 LINE"
);
},
{
closed = 1;
nodes = (
"728 615 OFFCURVE",
"665 655 OFFCURVE",
"596 714 CURVE SMOOTH",
"459 832 OFFCURVE",
"375 984 OFFCURVE",
"375 1120 CURVE SMOOTH",
"375 1253 OFFCURVE",
"429 1331 OFFCURVE",
"518 1331 CURVE SMOOTH",
"677 1331 OFFCURVE",
"809 1024 OFFCURVE",
"809 813 CURVE SMOOTH",
"809 722 OFFCURVE",
"801 650 OFFCURVE",
"786 596 CURVE"
);
}
);
width = 1090;
}
);
note = uni1C7D;
unicode = 1C7D;
},
{
glyphname = uni1C7E;
lastChange = "2016-11-10 14:15:24 +0000";
layers = (
{
layerId = "82F4720C-DC9D-4527-A6D6-45BE47925051";
paths = (
{
closed = 1;
nodes = (
"344 170 LINE",
"344 1044 LINE",
"205 1044 LINE",
"205 170 LINE"
);
}
);
width = 549;
}
);
note = uni1C7E;
unicode = 1C7E;
},
{
glyphname = uni1C7F;
lastChange = "2016-11-10 14:15:24 +0000";
layers = (
{
layerId = "82F4720C-DC9D-4527-A6D6-45BE47925051";
paths = (
{
closed = 1;
nodes = (
"821 170 LINE",
"821 1044 LINE",
"682 1044 LINE",
"682 170 LINE"
);
},
{
closed = 1;
nodes = (
"344 170 LINE",
"344 1044 LINE",
"205 1044 LINE",
"205 170 LINE"
);
}
